<svg width="9" height="9" viewBox="0 0 9 9" fill="none" xmlns="http://www.w3.org/2000/svg">
<path d="M4.49997 5.85C4.86447 5.85 5.17497 5.715 5.44947 5.4495C5.71497 5.175 5.84997 4.8645 5.84997 4.5C5.84997 4.1355 5.71497 3.825 5.44947 3.5505C5.17497 3.285 4.86447 3.15 4.49997 3.15C4.13547 3.15 3.82497 3.285 3.55047 3.5505C3.28497 3.825 3.14997 4.1355 3.14997 4.5C3.14997 4.8645 3.28497 5.175 3.55047 5.4495C3.82497 5.715 4.13547 5.85 4.49997 5.85ZM4.49997 0C5.73747 0 6.79497 0.45 7.67247 1.3275C8.54997 2.205 8.99997 3.2625 8.99997 4.5V5.1525C8.99997 5.6025 8.84247 5.985 8.54997 6.3C8.23497 6.6015 7.87497 6.75 7.42497 6.75C6.88497 6.75 6.43947 6.525 6.10197 6.075C5.65197 6.525 5.12097 6.75 4.49997 6.75C3.88347 6.75 3.35247 6.525 2.90697 6.093C2.47497 5.6475 2.24997 5.121 2.24997 4.5C2.24997 3.8835 2.47497 3.3525 2.90697 2.907C3.35247 2.475 3.88347 2.25 4.49997 2.25C5.12097 2.25 5.64747 2.475 6.09297 2.907C6.52497 3.3525 6.74997 3.8835 6.74997 4.5V5.1525C6.74997 5.337 6.82197 5.499 6.95697 5.6385C7.09197 5.778 7.24947 5.85 7.42497 5.85C7.61397 5.85 7.77147 5.778 7.90647 5.6385C8.04147 5.499 8.09997 5.337 8.09997 5.1525V4.5C8.09997 3.5145 7.75347 2.6685 7.04247 1.9575C6.33147 1.2465 5.48547 0.9 4.49997 0.9C3.51447 0.9 2.66847 1.2465 1.95747 1.9575C1.24647 2.6685 0.899969 3.5145 0.899969 4.5C0.899969 5.4855 1.24647 6.3315 1.95747 7.0425C2.66847 7.7535 3.51447 8.1 4.49997 8.1H6.74997V9H4.49997C3.26247 9 2.20497 8.55 1.32747 7.6725C0.449969 6.795 -3.05176e-05 5.7375 -3.05176e-05 4.5C-3.05176e-05 3.2625 0.449969 2.205 1.32747 1.3275C2.20497 0.45 3.26247 0 4.49997 0Z" fill="#0923BA"/>
</svg>
