<svg width="9" height="9" viewBox="0 0 9 9" fill="none" xmlns="http://www.w3.org/2000/svg">
<path d="M4.49997 0C3.60995 0 2.73993 0.26392 1.9999 0.758387C1.25988 1.25285 0.683108 1.95566 0.342514 2.77792C0.00191926 3.60019 -0.0871957 4.50499 0.0864377 5.37791C0.260071 6.25082 0.688654 7.05264 1.31799 7.68198C1.94733 8.31131 2.74915 8.7399 3.62206 8.91353C4.49498 9.08716 5.39978 8.99805 6.22205 8.65746C7.04431 8.31686 7.74712 7.74009 8.24158 7.00006C8.73605 6.26004 8.99997 5.39001 8.99997 4.5C8.9986 3.30695 8.52405 2.16315 7.68043 1.31954C6.83682 0.475921 5.69302 0.00137422 4.49997 0ZM8.30766 4.5C8.30797 4.85116 8.25948 5.20065 8.16358 5.53846H6.49728C6.60346 4.85022 6.60346 4.14977 6.49728 3.46154H8.16358C8.25948 3.79935 8.30797 4.14884 8.30766 4.5ZM3.37497 6.23077H5.62497C5.40332 6.95709 5.01851 7.6231 4.49997 8.17788C3.98168 7.62292 3.5969 6.95696 3.37497 6.23077ZM3.20622 5.53846C3.08734 4.85126 3.08734 4.14874 3.20622 3.46154H5.79718C5.91606 4.14874 5.91606 4.85126 5.79718 5.53846H3.20622ZM0.692279 4.5C0.691972 4.14884 0.740465 3.79935 0.836366 3.46154H2.50266C2.39648 4.14977 2.39648 4.85022 2.50266 5.53846H0.836366C0.740465 5.20065 0.691972 4.85116 0.692279 4.5ZM5.62497 2.76923H3.37497C3.59662 2.04291 3.98143 1.3769 4.49997 0.822115C5.01827 1.37708 5.40304 2.04303 5.62497 2.76923ZM7.88925 2.76923H6.348C6.15372 2.05655 5.82633 1.38708 5.3831 0.796154C5.91864 0.924806 6.42004 1.16774 6.85291 1.5083C7.28579 1.84887 7.6399 2.279 7.89098 2.76923H7.88925ZM3.61685 0.796154C3.17361 1.38708 2.84622 2.05655 2.65194 2.76923H1.10896C1.36004 2.279 1.71415 1.84887 2.14703 1.5083C2.5799 1.16774 3.0813 0.924806 3.61685 0.796154ZM1.10896 6.23077H2.65194C2.84622 6.94344 3.17361 7.61292 3.61685 8.20384C3.0813 8.07519 2.5799 7.83226 2.14703 7.4917C1.71415 7.15113 1.36004 6.72099 1.10896 6.23077ZM5.3831 8.20384C5.82633 7.61292 6.15372 6.94344 6.348 6.23077H7.89098C7.6399 6.72099 7.28579 7.15113 6.85291 7.4917C6.42004 7.83226 5.91864 8.07519 5.3831 8.20384Z" fill="#0923BA"/>
</svg>
